<?xml version="1.0" standalone="no"?>
<!DOCTYPE svg PUBLIC "-//W3C//DTD SVG 20010904//EN"
 "http://www.w3.org/TR/2001/REC-SVG-20010904/DTD/svg10.dtd">
<svg version="1.0" xmlns="http://www.w3.org/2000/svg"
 width="512.000000pt" height="512.000000pt" viewBox="0 0 512.000000 512.000000"
 preserveAspectRatio="xMidYMid meet">

<g transform="translate(0.000000,512.000000) scale(0.100000,-0.100000)"
fill="#000000" stroke="none">
<path d="M2376 4420 c-174 -22 -353 -73 -513 -145 l-75 -35 -325 0 c-301 0
-328 -1 -385 -21 -103 -34 -201 -117 -248 -209 -50 -99 -50 -77 -50 -1541 0
-888 4 -1385 10 -1420 23 -121 101 -236 201 -296 111 -66 29 -63 1569 -63
1540 0 1458 -3 1569 63 100 60 178 175 201 296 6 35 10 532 10 1420 0 1496 1
1449 -59 1554 -33 57 -107 133 -161 165 -81 47 -123 52 -464 52 l-319 0 -116
49 c-131 57 -251 93 -378 116 -104 19 -369 27 -467 15z m479 -160 c126 -27
220 -58 344 -115 l98 -45 339 0 c335 0 340 0 390 -24 61 -28 114 -81 146 -144
l23 -47 0 -1415 0 -1415 -21 -46 c-30 -63 -79 -116 -138 -147 l-51 -27 -1425
0 -1425 0 -51 27 c-59 31 -108 84 -138 147 l-21 46 0 1415 0 1415 23 46 c31
62 86 116 147 145 49 24 54 24 390 24 l340 0 65 31 c157 75 326 126 490 149
106 15 361 4 475 -20z"/>
<path d="M2385 4040 c-256 -41 -488 -151 -668 -317 -56 -51 -70 -77 -61 -106
9 -28 381 -588 402 -604 23 -19 981 -19 1004 0 21 16 393 576 402 604 9 29 -5
55 -61 106 -157 145 -356 249 -572 298 -100 23 -351 33 -446 19z m450 -164
c173 -45 463 -207 459 -258 -1 -8 -70 -119 -154 -247 l-152 -231 -428 0 -428
0 -150 228 c-83 126 -154 235 -157 243 -18 46 257 209 436 258 120 33 183 40
334 36 108 -3 163 -9 240 -29z"/>
<path d="M2512 3827 c-21 -22 -22 -32 -22 -196 l0 -174 -34 -38 c-58 -63 -57
-145 1 -203 77 -77 209 -44 244 61 16 49 3 98 -37 142 l-34 38 0 175 c0 169
-1 175 -23 196 -30 28 -68 28 -95 -1z"/>
<path d="M2140 3767 c-38 -19 -48 -60 -25 -104 47 -87 103 -115 145 -73 31 31
25 75 -16 131 -20 27 -39 49 -44 49 -5 0 -14 2 -22 5 -7 3 -24 -1 -38 -8z"/>
<path d="M2928 3773 c-28 -7 -88 -97 -88 -132 0 -54 52 -87 99 -61 26 13 81
102 81 129 0 24 -42 72 -62 70 -7 -1 -21 -3 -30 -6z"/>
</g>
</svg>
