<?xml version="1.0" standalone="no"?>
<!DOCTYPE svg PUBLIC "-//W3C//DTD SVG 20010904//EN"
 "http://www.w3.org/TR/2001/REC-SVG-20010904/DTD/svg10.dtd">
<svg version="1.0" xmlns="http://www.w3.org/2000/svg"
 width="512.000000pt" height="512.000000pt" viewBox="0 0 512.000000 512.000000"
 preserveAspectRatio="xMidYMid meet">

<g transform="translate(0.000000,512.000000) scale(0.100000,-0.100000)"
fill="#000000" stroke="none">
<path d="M1765 5104 c-42 -21 -452 -432 -470 -470 -12 -26 -15 -83 -15 -308
l0 -276 -285 0 -285 0 -32 -29 -33 -29 -3 -1793 c-1 -1165 1 -1813 8 -1848 31
-170 169 -309 339 -341 74 -14 3069 -14 3141 0 171 32 309 171 340 340 7 36 9
675 8 1849 l-3 1793 -33 29 -32 29 -285 0 -285 0 0 276 c0 226 -3 282 -15 308
-20 42 -442 462 -478 475 -19 8 -276 11 -790 11 -666 0 -766 -2 -792 -16z
m1435 -304 l0 -110 -640 0 -640 0 0 110 0 110 640 0 640 0 0 -110z m-1495
-738 c-3 -9 -31 -12 -107 -10 l-103 3 -3 240 -2 239 107 108 108 108 3 -337
c1 -186 0 -344 -3 -351z m1923 233 l-3 -240 -105 0 -105 0 -3 350 -2 350 110
-110 110 -110 -2 -240z m-428 -30 l0 -215 -640 0 -640 0 0 215 0 215 640 0
640 0 0 -215z m1070 -2130 c0 -1218 -3 -1719 -11 -1756 -16 -74 -84 -142 -158
-158 -74 -16 -3008 -16 -3082 0 -74 16 -142 84 -158 158 -8 37 -11 538 -11
1756 l0 1705 1710 0 1710 0 0 -1705z"/>
</g>
</svg>
