<?xml version="1.0" standalone="no"?>
<!DOCTYPE svg PUBLIC "-//W3C//DTD SVG 20010904//EN"
 "http://www.w3.org/TR/2001/REC-SVG-20010904/DTD/svg10.dtd">
<svg version="1.0" xmlns="http://www.w3.org/2000/svg"
 width="512.000000pt" height="512.000000pt" viewBox="0 0 512.000000 512.000000"
 preserveAspectRatio="xMidYMid meet">

<g transform="translate(0.000000,512.000000) scale(0.100000,-0.100000)"
fill="#000000" stroke="none">
<path d="M801 5104 c-159 -42 -291 -184 -321 -343 -5 -29 -10 -113 -10 -186
l0 -132 -82 -5 c-99 -5 -164 -34 -222 -98 -61 -67 -81 -122 -80 -215 0 -93 25
-153 91 -218 55 -56 104 -77 204 -90 l89 -11 0 -143 0 -143 -68 0 c-92 0 -152
-22 -216 -81 -72 -66 -100 -130 -100 -229 0 -99 28 -163 100 -229 64 -59 124
-81 216 -81 l68 0 0 -144 0 -143 -78 -7 c-132 -12 -223 -70 -279 -179 -22 -43
-27 -65 -27 -132 -1 -93 19 -148 80 -215 58 -64 123 -93 222 -98 l82 -5 0
-142 0 -142 -76 -6 c-135 -10 -231 -72 -286 -187 -31 -63 -31 -186 -2 -251 53
-114 153 -179 285 -187 l78 -5 3 -386 c3 -378 3 -387 26 -444 31 -75 111 -158
189 -195 l58 -27 1885 -3 c1409 -2 1892 1 1913 9 50 21 70 85 43 138 -21 39
-56 51 -151 51 l-85 0 0 164 0 163 62 6 c76 7 131 42 165 106 20 39 23 58 23
167 l0 122 143 4 c160 4 204 18 250 80 44 60 47 85 47 400 0 325 -3 343 -58
402 -51 54 -92 66 -244 66 l-138 0 0 504 0 505 153 3 c147 3 155 4 194 30 26
17 50 45 67 79 l26 53 0 678 c0 741 2 718 -58 782 -51 54 -92 66 -244 66
l-138 0 0 185 c0 202 -6 234 -58 289 -15 16 -45 37 -67 47 -38 18 -108 19
-1830 18 -1532 0 -1798 -2 -1844 -15z m2959 -2279 l0 -2095 -465 0 c-505 0
-508 0 -533 -55 -20 -44 -14 -75 22 -111 l34 -34 666 0 666 0 0 -165 0 -165
-1673 0 -1674 0 -43 23 c-50 26 -90 90 -90 141 0 51 40 118 85 143 l40 23 588
0 c638 0 630 -1 655 55 15 33 15 57 0 90 -25 56 -16 55 -665 55 -551 -1 -602
-2 -650 -19 l-53 -18 0 399 0 398 46 0 c88 0 130 -38 151 -134 26 -122 193
-97 193 29 0 72 -36 152 -95 211 -42 42 -65 56 -120 73 -37 12 -91 21 -121 21
l-54 0 0 355 c0 399 -6 373 77 360 63 -9 113 -57 113 -109 0 -55 45 -101 100
-101 56 0 100 46 100 103 0 164 -129 292 -310 308 l-80 7 0 353 0 354 60 0
c78 0 116 -30 129 -105 16 -86 82 -126 150 -90 81 41 60 202 -39 304 -61 63
-111 84 -212 89 l-88 4 0 360 0 360 65 -4 c76 -5 111 -30 121 -87 10 -61 26
-91 55 -106 46 -24 87 -19 121 16 29 29 30 33 26 92 -7 81 -43 151 -106 209
-60 53 -129 78 -218 78 l-64 0 0 138 c1 88 6 150 14 175 16 45 58 102 92 123
67 44 24 43 1542 44 l1442 0 0 -2095z m640 0 l0 -2095 -220 0 -220 0 0 2095 0
2095 220 0 220 0 0 -2095z m438 1283 l-3 -273 -115 0 -115 0 -3 273 -2 272
120 0 120 0 -2 -272z m-4368 17 l0 -115 -33 0 c-81 0 -142 39 -153 97 -14 77
42 133 134 133 l52 0 0 -115z m4370 -765 l0 -270 -120 0 -120 0 0 270 0 270
120 0 120 0 0 -270z m-4370 -150 l0 -110 -61 0 c-53 0 -64 3 -89 29 -52 51
-52 111 0 162 25 26 36 29 89 29 l61 0 0 -110z m0 -915 l0 -115 -52 0 c-92 0
-148 56 -134 133 11 59 66 94 149 96 l37 1 0 -115z m4368 -887 l-3 -273 -117
-3 -118 -3 0 276 0 275 120 0 120 0 -2 -272z m-4368 -33 l0 -115 -50 0 c-66 0
-108 22 -127 67 -19 47 -10 93 25 125 34 32 46 36 105 37 l47 1 0 -115z"/>
<path d="M1651 3808 c-28 -14 -54 -37 -72 -67 l-29 -45 0 -358 c0 -336 1 -361
20 -397 25 -49 70 -88 120 -101 26 -7 270 -10 734 -8 l694 3 44 30 c23 17 53
49 65 70 23 40 23 42 21 406 l-3 365 -24 36 c-13 19 -40 46 -59 59 l-36 24
-715 3 -716 2 -44 -22z m1399 -478 l0 -300 -650 0 -650 0 0 300 0 300 650 0
650 0 0 -300z"/>
<path d="M2351 716 c-90 -50 -50 -186 55 -186 35 0 94 59 94 94 0 80 -80 130
-149 92z"/>
</g>
</svg>
