<?xml version="1.0" standalone="no"?>
<!DOCTYPE svg PUBLIC "-//W3C//DTD SVG 20010904//EN"
 "http://www.w3.org/TR/2001/REC-SVG-20010904/DTD/svg10.dtd">
<svg version="1.0" xmlns="http://www.w3.org/2000/svg"
 width="512.000000pt" height="512.000000pt" viewBox="0 0 512.000000 512.000000"
 preserveAspectRatio="xMidYMid meet">

<g transform="translate(0.000000,512.000000) scale(0.100000,-0.100000)"
fill="#000000" stroke="none">
<path d="M2350 4764 c-14 -2 -59 -9 -100 -15 -247 -35 -506 -137 -733 -288
-153 -103 -178 -141 -142 -211 32 -61 99 -68 166 -16 196 149 438 259 682 308
160 33 464 33 614 0 192 -42 399 -124 537 -212 l48 -31 -20 -22 c-60 -64 -19
-167 66 -167 33 0 208 36 239 50 12 5 30 24 39 41 14 29 15 46 5 152 -6 65
-16 128 -21 138 -13 24 -61 49 -94 49 -28 0 -86 -45 -86 -67 0 -18 6 -21 -114
51 -170 101 -361 174 -572 217 -73 15 -149 21 -294 24 -107 2 -206 2 -220 -1z"/>
<path d="M862 3905 c-216 -39 -396 -132 -558 -287 -193 -185 -286 -399 -301
-688 -19 -374 123 -733 365 -921 37 -29 73 -59 79 -68 10 -11 13 -90 13 -315
0 -279 1 -303 20 -341 13 -26 34 -49 59 -63 38 -22 44 -22 492 -22 432 0 456
1 486 20 54 33 67 63 73 169 l5 96 130 5 c117 4 136 8 187 33 71 35 140 110
167 183 19 48 21 78 21 243 l0 189 38 7 c56 9 113 45 146 93 24 34 31 56 34
106 4 59 0 75 -60 227 -55 137 -74 206 -122 422 -65 290 -78 334 -135 444
-163 313 -500 485 -942 482 -68 0 -157 -7 -197 -14z m398 -200 c120 -18 187
-38 275 -82 154 -78 253 -184 323 -349 12 -28 49 -174 82 -325 51 -230 70
-298 121 -426 34 -84 59 -160 55 -168 -4 -11 -22 -15 -76 -15 -63 0 -73 -3
-102 -29 l-33 -29 -5 -254 c-4 -220 -7 -256 -23 -279 -31 -46 -71 -58 -208
-62 -121 -3 -129 -4 -175 -33 -65 -40 -95 -95 -102 -185 l-5 -69 -363 0 -364
0 0 283 c0 276 -1 283 -24 333 -15 33 -41 65 -72 90 -85 68 -198 187 -233 246
-95 162 -139 361 -128 573 14 256 101 436 287 592 115 96 269 168 412 192 84
14 254 12 358 -4z"/>
<path d="M3825 3905 c-328 -53 -575 -216 -705 -467 -58 -111 -71 -155 -136
-445 -48 -216 -67 -285 -122 -422 -60 -152 -64 -168 -60 -227 3 -50 10 -72 34
-106 33 -48 90 -84 146 -93 l38 -7 0 -189 c0 -165 2 -195 21 -243 27 -73 96
-148 167 -183 51 -25 70 -29 187 -33 l130 -5 5 -96 c6 -106 19 -136 73 -169
30 -19 54 -20 488 -20 l456 0 33 23 c18 12 43 35 54 50 20 27 21 44 26 349 5
305 6 320 25 334 242 170 388 431 426 757 13 110 7 296 -11 387 -22 105 -62
214 -91 242 -50 51 -137 31 -159 -36 -9 -27 -6 -46 19 -122 90 -272 58 -595
-80 -832 -35 -59 -148 -178 -233 -246 -31 -25 -57 -57 -72 -90 -23 -50 -24
-57 -24 -333 l0 -283 -365 0 -365 0 0 48 c0 99 -38 172 -110 212 -40 21 -59
25 -170 27 -136 4 -176 16 -207 62 -16 23 -19 59 -23 279 l-5 254 -33 29 c-29
26 -39 29 -102 29 -54 0 -72 4 -76 15 -4 8 21 84 55 168 51 128 70 196 121
424 63 284 78 335 129 422 71 120 158 198 293 261 155 72 305 96 536 86 152
-6 153 -6 177 18 53 53 37 133 -33 163 -52 23 -334 28 -457 8z"/>
<path d="M4589 3691 c-38 -38 -39 -87 -4 -129 63 -75 187 -21 172 76 -13 81
-109 111 -168 53z"/>
<path d="M1508 986 c-53 -13 -103 -28 -111 -35 -34 -28 -40 -65 -28 -187 7
-64 16 -125 22 -135 12 -24 60 -49 93 -49 28 0 86 44 86 66 0 8 2 14 3 14 2 0
46 -26 98 -57 179 -107 399 -190 614 -229 125 -23 469 -26 585 -6 276 49 509
142 733 291 153 103 178 141 142 211 -37 73 -94 68 -210 -15 -186 -133 -434
-239 -660 -281 -149 -28 -452 -26 -592 4 -190 41 -399 123 -537 212 l-48 31
20 22 c43 46 37 119 -14 152 -31 20 -78 18 -196 -9z"/>
</g>
</svg>
