<?xml version="1.0" standalone="no"?>
<!DOCTYPE svg PUBLIC "-//W3C//DTD SVG 20010904//EN"
 "http://www.w3.org/TR/2001/REC-SVG-20010904/DTD/svg10.dtd">
<svg version="1.0" xmlns="http://www.w3.org/2000/svg"
 width="512.000000pt" height="512.000000pt" viewBox="0 0 512.000000 512.000000"
 preserveAspectRatio="xMidYMid meet">

<g transform="translate(0.000000,512.000000) scale(0.100000,-0.100000)"
fill="#000000" stroke="none">
<path d="M2330 5110 c-494 -48 -950 -230 -1350 -538 -195 -150 -448 -432 -594
-662 -63 -99 -186 -351 -230 -471 -49 -134 -102 -340 -128 -499 -31 -195 -31
-565 0 -760 45 -276 116 -498 237 -745 132 -269 269 -460 489 -681 221 -220
412 -357 681 -489 247 -121 469 -192 745 -237 195 -31 565 -31 760 0 276 45
498 116 745 237 269 132 460 269 681 489 220 221 357 412 489 681 88 179 132
296 180 476 63 240 78 371 78 649 0 278 -15 409 -78 649 -48 180 -92 297 -180
476 -132 269 -269 460 -489 681 -221 220 -412 357 -681 489 -246 121 -474 193
-740 235 -147 23 -475 34 -615 20z m530 -386 c865 -113 1596 -765 1815 -1618
49 -191 67 -341 67 -546 0 -205 -18 -355 -67 -546 -196 -766 -803 -1373 -1569
-1569 -191 -49 -341 -67 -546 -67 -205 0 -355 18 -546 67 -766 196 -1373 803
-1569 1569 -49 191 -67 341 -67 546 0 205 18 355 67 546 194 757 794 1364
1545 1563 293 78 563 95 870 55z"/>
<path d="M2365 3851 c-47 -22 -89 -64 -104 -104 -8 -19 -11 -255 -11 -718 0
-598 2 -695 15 -726 20 -48 41 -71 87 -94 35 -18 67 -19 584 -19 l547 0 43 25
c130 76 119 263 -21 326 -37 17 -74 19 -462 19 l-423 0 -2 593 -3 593 -25 37
c-29 43 -108 87 -154 87 -17 0 -49 -9 -71 -19z"/>
</g>
</svg>
