<svg version="1.0" xmlns="http://www.w3.org/2000/svg" width="682.667" height="682.667" viewBox="0 0 512 512"><path d="M237.6 70c-17.4 2.2-35.3 7.3-51.3 14.5l-7.5 3.5h-32.5c-30.1 0-32.8.1-38.5 2.1C97.5 93.5 87.7 101.8 83 111c-5 9.9-5 7.7-5 154.1 0 88.8.4 138.5 1 142 2.3 12.1 10.1 23.6 20.1 29.6 11.1 6.6 2.9 6.3 156.9 6.3s145.8.3 156.9-6.3c10-6 17.8-17.5 20.1-29.6.6-3.5 1-53.2 1-142 0-149.6.1-144.9-5.9-155.4-3.3-5.7-10.7-13.3-16.1-16.5-8.1-4.7-12.3-5.2-46.4-5.2h-31.9l-11.6-4.9c-13.1-5.7-25.1-9.3-37.8-11.6-10.4-1.9-36.9-2.7-46.7-1.5zm47.9 16c12.6 2.7 22 5.8 34.4 11.5l9.8 4.5h33.9c33.5 0 34 0 39 2.4 6.1 2.8 11.4 8.1 14.6 14.4l2.3 4.7v283l-2.1 4.6c-3 6.3-7.9 11.6-13.8 14.7l-5.1 2.7h-285l-5.1-2.7c-5.9-3.1-10.8-8.4-13.8-14.7l-2.1-4.6v-283l2.3-4.6c3.1-6.2 8.6-11.6 14.7-14.5 4.9-2.4 5.4-2.4 39-2.4h34l6.5-3.1c15.7-7.5 32.6-12.6 49-14.9 10.6-1.5 36.1-.4 47.5 2z"/><path d="M238.5 108c-25.6 4.1-48.8 15.1-66.8 31.7-5.6 5.1-7 7.7-6.1 10.6.9 2.8 38.1 58.8 40.2 60.4 2.3 1.9 98.1 1.9 100.4 0 2.1-1.6 39.3-57.6 40.2-60.4.9-2.9-.5-5.5-6.1-10.6-15.7-14.5-35.6-24.9-57.2-29.8-10-2.3-35.1-3.3-44.6-1.9zm45 16.4c17.3 4.5 46.3 20.7 45.9 25.8-.1.8-7 11.9-15.4 24.7L298.8 198h-85.6l-15-22.8c-8.3-12.6-15.4-23.5-15.7-24.3-1.8-4.6 25.7-20.9 43.6-25.8 12-3.3 18.3-4 33.4-3.6 10.8.3 16.3.9 24 2.9z"/><path d="M251.2 129.3c-2.1 2.2-2.2 3.2-2.2 19.6v17.4l-3.4 3.8c-5.8 6.3-5.7 14.5.1 20.3 7.7 7.7 20.9 4.4 24.4-6.1 1.6-4.9.3-9.8-3.7-14.2l-3.4-3.8v-17.5c0-16.9-.1-17.5-2.3-19.6-3-2.8-6.8-2.8-9.5.1zm-37.2 6c-3.8 1.9-4.8 6-2.5 10.4 4.7 8.7 10.3 11.5 14.5 7.3 3.1-3.1 2.5-7.5-1.6-13.1-2-2.7-3.9-4.9-4.4-4.9-.5 0-1.4-.2-2.2-.5-.7-.3-2.4.1-3.8.8zm78.8-.6c-2.8.7-8.8 9.7-8.8 13.2 0 5.4 5.2 8.7 9.9 6.1 2.6-1.3 8.1-10.2 8.1-12.9 0-2.4-4.2-7.2-6.2-7-.7.1-2.1.3-3 .6z"/></svg>