<svg version="1.0" xmlns="http://www.w3.org/2000/svg" width="682.667" height="682.667" viewBox="0 0 512 512"><path d="M176.5 1.6c-4.2 2.1-45.2 43.2-47 47-1.2 2.6-1.5 8.3-1.5 30.8V107H71l-3.2 2.9-3.3 2.9-.3 179.3c-.1 116.5.1 181.3.8 184.8 3.1 17 16.9 30.9 33.9 34.1 7.4 1.4 306.9 1.4 314.1 0 17.1-3.2 30.9-17.1 34-34 .7-3.6.9-67.5.8-184.9l-.3-179.3-3.3-2.9-3.2-2.9h-57V79.4c0-22.6-.3-28.2-1.5-30.8-2-4.2-44.2-46.2-47.8-47.5-1.9-.8-27.6-1.1-79-1.1-66.6 0-76.6.2-79.2 1.6zM320 32v11H192V21h128v11zm-149.5 73.8c-.3.9-3.1 1.2-10.7 1l-10.3-.3-.3-24-.2-23.9 10.7-10.8L170.5 37l.3 33.7c.1 18.6 0 34.4-.3 35.1zm192.3-23.3l-.3 24h-21l-.3-35-.2-35 11 11 11 11-.2 24zm-42.8 3V107H192V64h128v21.5zm107 213c0 121.8-.3 171.9-1.1 175.6-1.6 7.4-8.4 14.2-15.8 15.8-7.4 1.6-300.8 1.6-308.2 0-7.4-1.6-14.2-8.4-15.8-15.8-.8-3.7-1.1-53.8-1.1-175.6V128h342v170.5z"/></svg>