<?xml version="1.0" standalone="no"?>
<!DOCTYPE svg PUBLIC "-//W3C//DTD SVG 20010904//EN"
 "http://www.w3.org/TR/2001/REC-SVG-20010904/DTD/svg10.dtd">
<svg version="1.0" xmlns="http://www.w3.org/2000/svg"
 width="512.000000pt" height="512.000000pt" viewBox="0 0 512.000000 512.000000"
 preserveAspectRatio="xMidYMid meet">

<g transform="translate(0.000000,512.000000) scale(0.100000,-0.100000)"
fill="#000000" stroke="none">
<path d="M2255 5106 c-121 -38 -201 -129 -225 -255 -14 -72 -14 -1310 0 -1382
20 -106 91 -199 184 -241 47 -21 65 -23 219 -23 l169 0 29 33 c41 46 40 99 -2
141 l-31 31 -121 0 c-141 0 -188 10 -217 47 -20 25 -20 36 -20 705 l0 680 28
28 c19 19 43 30 73 35 24 3 546 5 1159 3 1058 -3 1116 -4 1142 -21 14 -10 31
-32 37 -49 15 -43 15 -1313 0 -1356 -17 -49 -51 -64 -156 -71 -84 -6 -95 -9
-120 -34 -27 -26 -28 -33 -31 -133 l-4 -106 -137 136 -138 136 -362 0 -363 0
-29 -29 c-54 -54 -36 -146 33 -170 19 -7 143 -11 331 -11 l301 0 211 -209
c132 -131 219 -210 235 -213 39 -7 87 10 109 38 19 25 21 40 21 203 l0 177 63
13 c111 22 198 95 238 201 18 48 19 83 19 750 0 667 -1 702 -19 750 -37 98
-116 170 -215 196 -72 19 -2350 19 -2411 0z"/>
<path d="M417 4670 c-100 -39 -175 -127 -197 -230 -8 -39 -10 -252 -8 -740 l3
-685 23 -50 c48 -105 127 -162 265 -190 l27 -5 0 -176 0 -176 34 -34 c28 -28
41 -34 77 -34 42 0 45 3 254 210 l211 210 831 0 c521 0 850 4 884 10 106 20
199 91 241 184 l23 51 3 685 c2 488 0 701 -8 740 -14 64 -65 147 -114 185 -70
53 -122 65 -290 65 -151 0 -155 -1 -185 -26 -38 -32 -49 -80 -27 -123 27 -50
60 -61 194 -61 134 0 172 -9 199 -48 17 -25 18 -68 21 -662 2 -349 0 -655 -3
-679 -5 -30 -16 -54 -35 -73 l-28 -28 -869 0 c-533 0 -882 -4 -903 -10 -25 -7
-71 -46 -160 -135 -69 -69 -128 -125 -132 -125 -5 0 -8 44 -8 99 0 84 -3 102
-20 124 -26 33 -75 47 -163 47 -62 0 -71 3 -97 28 -19 19 -30 43 -35 73 -3 24
-5 330 -3 679 3 594 4 637 21 662 10 14 32 31 49 37 21 7 229 11 630 11 659 0
641 -2 674 61 22 43 11 91 -27 123 l-31 26 -636 0 c-599 -1 -640 -2 -685 -20z"/>
<path d="M1090 2340 c-207 -32 -381 -191 -435 -397 -21 -80 -21 -396 0 -476
20 -76 54 -141 109 -209 l45 -55 -263 -176 c-263 -175 -302 -208 -325 -276
-18 -54 -15 -444 4 -480 27 -53 173 -152 298 -203 150 -61 210 -68 647 -68
437 0 497 7 647 68 125 51 271 150 298 203 19 36 22 426 4 480 -23 68 -62 101
-325 276 l-263 176 45 55 c103 126 124 202 124 447 0 200 -9 254 -60 355 -35
69 -123 163 -195 209 -94 59 -239 88 -355 71z m190 -229 c69 -26 114 -63 155
-124 47 -73 58 -135 53 -312 -3 -137 -5 -155 -29 -206 -55 -117 -160 -184
-289 -184 -129 0 -234 67 -289 184 -24 51 -26 69 -29 206 -3 92 1 171 8 205
14 65 65 147 114 185 84 64 209 83 306 46z m-110 -1041 c41 0 92 4 112 9 36 8
43 4 337 -192 l301 -200 0 -157 0 -158 -35 -27 c-51 -38 -190 -101 -260 -117
-45 -10 -161 -13 -460 -13 -353 0 -408 2 -465 18 -78 21 -173 65 -235 107
l-45 31 0 158 0 158 301 200 c294 196 301 200 337 192 20 -5 71 -9 112 -9z"/>
<path d="M2024 2337 c-2 -7 -3 -56 -2 -108 l3 -94 105 0 105 0 0 105 0 105
-103 3 c-79 2 -104 0 -108 -11z"/>
<path d="M2450 2240 l0 -110 105 0 105 0 0 110 0 110 -105 0 -105 0 0 -110z"/>
<path d="M2880 2240 l0 -110 105 0 105 0 0 110 0 110 -105 0 -105 0 0 -110z"/>
<path d="M3855 2339 c-133 -20 -299 -134 -370 -254 -58 -100 -68 -145 -72
-345 -5 -205 5 -277 53 -373 25 -49 90 -138 106 -145 5 -2 8 -8 8 -13 0 -5
-121 -90 -269 -189 -239 -159 -273 -185 -298 -227 l-28 -48 0 -226 c0 -169 3
-232 13 -250 35 -63 216 -177 349 -219 150 -48 196 -52 639 -48 385 4 414 5
489 26 147 41 333 145 399 222 l26 32 0 229 c0 211 -2 233 -20 270 -29 56 -50
73 -329 258 l-249 166 35 40 c57 65 92 125 116 200 19 62 22 92 22 260 0 205
-8 253 -62 360 -33 64 -154 185 -218 218 -104 52 -229 73 -340 56z m230 -241
c60 -31 114 -86 146 -148 22 -41 24 -59 27 -222 3 -145 1 -187 -13 -227 -23
-69 -66 -125 -127 -165 -196 -127 -444 -18 -488 213 -22 119 -8 337 27 406 35
68 108 133 180 160 61 23 186 15 248 -17z m-170 -1025 c50 -3 110 0 134 5 l44
10 298 -199 299 -199 0 -163 0 -163 -77 -46 c-168 -100 -249 -111 -732 -105
-293 3 -367 7 -416 21 -67 18 -158 60 -222 103 l-43 27 0 166 1 165 297 198
c192 127 302 195 312 191 8 -4 56 -9 105 -11z"/>
</g>
</svg>
