<svg version="1.0" xmlns="http://www.w3.org/2000/svg" width="682.667" height="682.667" viewBox="0 0 512 512"><path d="M80.1 1.6C64.2 5.8 51 20 48 35.9c-.5 2.9-1 11.3-1 18.6v13.2l-8.2.5c-9.9.5-16.4 3.4-22.2 9.8-6.1 6.7-8.1 12.2-8 21.5 0 9.3 2.5 15.3 9.1 21.8 5.5 5.6 10.4 7.7 20.4 9l8.9 1.1V160h-6.8c-9.2 0-15.2 2.2-21.6 8.1-7.2 6.6-10 13-10 22.9 0 9.9 2.8 16.3 10 22.9C25 219.8 31 222 40.2 222H47v28.7l-7.8.7c-13.2 1.2-22.3 7-27.9 17.9-2.2 4.3-2.7 6.5-2.7 13.2-.1 9.3 1.9 14.8 8 21.5 5.8 6.4 12.3 9.3 22.2 9.8l8.2.5v28.4l-7.6.6c-13.5 1-23.1 7.2-28.6 18.7-3.1 6.3-3.1 18.6-.2 25.1 5.3 11.4 15.3 17.9 28.5 18.7l7.8.5.3 38.6c.3 37.8.3 38.7 2.6 44.4 3.1 7.5 11.1 15.8 18.9 19.5l5.8 2.7 188.5.3c140.9.2 189.2-.1 191.3-.9 5-2.1 7-8.5 4.3-13.8-2.1-3.9-5.6-5.1-15.1-5.1H435v-32.7l6.2-.6c7.6-.7 13.1-4.2 16.5-10.6 2-3.9 2.3-5.8 2.3-16.7v-12.2l14.3-.4c16-.4 20.4-1.8 25-8 4.4-6 4.7-8.5 4.7-40 0-32.5-.3-34.3-5.8-40.2-5.1-5.4-9.2-6.6-24.4-6.6H460V223.1l15.3-.3c14.7-.3 15.5-.4 19.4-3 2.6-1.7 5-4.5 6.7-7.9l2.6-5.3v-67.8c0-74.1.2-71.8-5.8-78.2-5.1-5.4-9.2-6.6-24.4-6.6H460V35.5c0-20.2-.6-23.4-5.8-28.9-1.5-1.6-4.5-3.7-6.7-4.7C443.7.1 436.7 0 264.5.1 111.3.1 84.7.3 80.1 1.6zM376 229.5V439h-46.5c-50.5 0-50.8 0-53.3 5.5-2 4.4-1.4 7.5 2.2 11.1l3.4 3.4H415v33H80.3l-4.3-2.3c-5-2.6-9-9-9-14.1s4-11.8 8.5-14.3l4-2.3h58.8c63.8 0 63 .1 65.5-5.5 1.5-3.3 1.5-5.7 0-9-2.5-5.6-1.6-5.5-66.5-5.5-55.1.1-60.2.2-65 1.9l-5.3 1.8V363h4.6c8.8 0 13 3.8 15.1 13.4 2.6 12.2 19.3 9.7 19.3-2.9 0-7.2-3.6-15.2-9.5-21.1-4.2-4.2-6.5-5.6-12-7.3-3.7-1.2-9.1-2.1-12.1-2.1H67v-35.5c0-39.9-.6-37.3 7.7-36 6.3.9 11.3 5.7 11.3 10.9 0 5.5 4.5 10.1 10 10.1 5.6 0 10-4.6 10-10.3 0-16.4-12.9-29.2-31-30.8l-8-.7V180h6c7.8 0 11.6 3 12.9 10.5 1.6 8.6 8.2 12.6 15 9 8.1-4.1 6-20.2-3.9-30.4-6.1-6.3-11.1-8.4-21.2-8.9l-8.8-.4v-72l6.5.4c7.6.5 11.1 3 12.1 8.7 1 6.1 2.6 9.1 5.5 10.6 4.6 2.4 8.7 1.9 12.1-1.6 2.9-2.9 3-3.3 2.6-9.2-.7-8.1-4.3-15.1-10.6-20.9-6-5.3-12.9-7.8-21.8-7.8H67V54.2c.1-8.8.6-15 1.4-17.5 1.6-4.5 5.8-10.2 9.2-12.3C84.3 20 80 20.1 231.8 20H376v209.5zm64 0V439h-44V20h44v209.5zm43.8-128.3l-.3 27.3h-23l-.3-27.3L460 74h24l-.2 27.2zM47 99.5V111h-3.3c-8.1 0-14.2-3.9-15.3-9.7C27 93.6 32.6 88 41.8 88H47v11.5zM484 176v27h-24v-54h24v27zM47 191v11h-6.1c-5.3 0-6.4-.3-8.9-2.9-5.2-5.1-5.2-11.1 0-16.2 2.5-2.6 3.6-2.9 8.9-2.9H47v11zm0 91.5V294h-5.2c-9.2 0-14.8-5.6-13.4-13.3 1.1-5.9 6.6-9.4 14.9-9.6l3.7-.1v11.5zm436.8 88.7l-.3 27.3-11.7.3-11.8.3V344h24l-.2 27.2zM47 374.5V386h-5c-6.6 0-10.8-2.2-12.7-6.7-1.9-4.7-1-9.3 2.5-12.5 3.4-3.2 4.6-3.6 10.5-3.7l4.7-.1v11.5z"/><path d="M165.1 131.2c-2.8 1.4-5.4 3.7-7.2 6.7l-2.9 4.5v35.8c0 33.6.1 36.1 2 39.7 2.5 4.9 7 8.8 12 10.1 2.6.7 27 1 73.4.8l69.4-.3 4.4-3c2.3-1.7 5.3-4.9 6.5-7 2.3-4 2.3-4.2 2.1-40.6l-.3-36.5-2.4-3.6c-1.3-1.9-4-4.6-5.9-5.9l-3.6-2.4-71.5-.3-71.6-.2-4.4 2.2zM305 179v30H175v-60h130v30zm-69.9 261.4c-9 5-5 18.6 5.5 18.6 3.5 0 9.4-5.9 9.4-9.4 0-8-8-13-14.9-9.2z"/></svg>