<svg version="1.0" xmlns="http://www.w3.org/2000/svg" width="682.667" height="682.667" viewBox="0 0 512 512"><path d="M235 35.6c-1.4.2-5.9.9-10 1.5-24.7 3.5-50.6 13.7-73.3 28.8C136.4 76.2 133.9 80 137.5 87c3.2 6.1 9.9 6.8 16.6 1.6 19.6-14.9 43.8-25.9 68.2-30.8 16-3.3 46.4-3.3 61.4 0 19.2 4.2 39.9 12.4 53.7 21.2l4.8 3.1-2 2.2c-6 6.4-1.9 16.7 6.6 16.7 3.3 0 20.8-3.6 23.9-5 1.2-.5 3-2.4 3.9-4.1 1.4-2.9 1.5-4.6.5-15.2-.6-6.5-1.6-12.8-2.1-13.8-1.3-2.4-6.1-4.9-9.4-4.9-2.8 0-8.6 4.5-8.6 6.7 0 1.8.6 2.1-11.4-5.1-17-10.1-36.1-17.4-57.2-21.7-7.3-1.5-14.9-2.1-29.4-2.4-10.7-.2-20.6-.2-22 .1zM86.2 121.5c-21.6 3.9-39.6 13.2-55.8 28.7C11.1 168.7 1.8 190.1.3 219c-1.9 37.4 12.3 73.3 36.5 92.1 3.7 2.9 7.3 5.9 7.9 6.8 1 1.1 1.3 9 1.3 31.5 0 27.9.1 30.3 2 34.1 1.3 2.6 3.4 4.9 5.9 6.3 3.8 2.2 4.4 2.2 49.2 2.2 43.2 0 45.6-.1 48.6-2 5.4-3.3 6.7-6.3 7.3-16.9l.5-9.6 13-.5c11.7-.4 13.6-.8 18.7-3.3 7.1-3.5 14-11 16.7-18.3 1.9-4.8 2.1-7.8 2.1-24.3v-18.9l3.8-.7c5.6-.9 11.3-4.5 14.6-9.3 2.4-3.4 3.1-5.6 3.4-10.6.4-5.9 0-7.5-6-22.7-5.5-13.7-7.4-20.6-12.2-42.2-6.5-29-7.8-33.4-13.5-44.4-16.3-31.3-50-48.5-94.2-48.2-6.8 0-15.7.7-19.7 1.4zm39.8 20c12 1.8 18.7 3.8 27.5 8.2 15.4 7.8 25.3 18.4 32.3 34.9 1.2 2.8 4.9 17.4 8.2 32.5 5.1 23 7 29.8 12.1 42.6 3.4 8.4 5.9 16 5.5 16.8-.4 1.1-2.2 1.5-7.6 1.5-6.3 0-7.3.3-10.2 2.9l-3.3 2.9-.5 25.4c-.4 22-.7 25.6-2.3 27.9-3.1 4.6-7.1 5.8-20.8 6.2-12.1.3-12.9.4-17.5 3.3-6.5 4-9.5 9.5-10.2 18.5l-.5 6.9H66v-28.3c0-27.6-.1-28.3-2.4-33.3-1.5-3.3-4.1-6.5-7.2-9-8.5-6.8-19.8-18.7-23.3-24.6-9.5-16.2-13.9-36.1-12.8-57.3 1.4-25.6 10.1-43.6 28.7-59.2 11.5-9.6 26.9-16.8 41.2-19.2 8.4-1.4 25.4-1.2 35.8.4zm256.5-20c-32.8 5.3-57.5 21.6-70.5 46.7-5.8 11.1-7.1 15.5-13.6 44.5-4.8 21.6-6.7 28.5-12.2 42.2-6 15.2-6.4 16.8-6 22.7.3 5 1 7.2 3.4 10.6 3.3 4.8 9 8.4 14.6 9.3l3.8.7v18.9c0 16.5.2 19.5 2.1 24.3 2.7 7.3 9.6 14.8 16.7 18.3 5.1 2.5 7 2.9 18.7 3.3l13 .5.5 9.6c.6 10.6 1.9 13.6 7.3 16.9 3 1.9 5.4 2 48.8 2h45.6l3.3-2.3c1.8-1.2 4.3-3.5 5.4-5 2-2.7 2.1-4.4 2.6-34.9s.6-32 2.5-33.4c24.2-17 38.8-43.1 42.6-75.7 1.3-11 .7-29.6-1.1-38.7-2.2-10.5-6.2-21.4-9.1-24.2-5-5.1-13.7-3.1-15.9 3.6-.9 2.7-.6 4.6 1.9 12.2 9 27.2 5.8 59.5-8 83.2-3.5 5.9-14.8 17.8-23.3 24.6-3.1 2.5-5.7 5.7-7.2 9-2.3 5-2.4 5.7-2.4 33.3V372h-73v-4.8c0-9.9-3.8-17.2-11-21.2-4-2.1-5.9-2.5-17-2.7-13.6-.4-17.6-1.6-20.7-6.2-1.6-2.3-1.9-5.9-2.3-27.9l-.5-25.4-3.3-2.9c-2.9-2.6-3.9-2.9-10.2-2.9-5.4 0-7.2-.4-7.6-1.5-.4-.8 2.1-8.4 5.5-16.8 5.1-12.8 7-19.6 12.1-42.4 6.3-28.4 7.8-33.5 12.9-42.2 7.1-12 15.8-19.8 29.3-26.1 15.5-7.2 30.5-9.6 53.6-8.6 15.2.6 15.3.6 17.7-1.8 5.3-5.3 3.7-13.3-3.3-16.3-5.2-2.3-33.4-2.8-45.7-.8z"/><path d="M458.9 142.9c-3.8 3.8-3.9 8.7-.4 12.9 6.3 7.5 18.7 2.1 17.2-7.6-1.3-8.1-10.9-11.1-16.8-5.3zM150.8 413.4c-5.3 1.3-10.3 2.8-11.1 3.5-3.4 2.8-4 6.5-2.8 18.7.7 6.4 1.6 12.5 2.2 13.5 1.2 2.4 6 4.9 9.3 4.9 2.8 0 8.6-4.4 8.6-6.6 0-.8.2-1.4.3-1.4.2 0 4.6 2.6 9.8 5.7 17.9 10.7 39.9 19 61.4 22.9 12.5 2.3 46.9 2.6 58.5.6 27.6-4.9 50.9-14.2 73.3-29.1 15.3-10.3 17.8-14.1 14.2-21.1-3.7-7.3-9.4-6.8-21 1.5-18.6 13.3-43.4 23.9-66 28.1-14.9 2.8-45.2 2.6-59.2-.4-19-4.1-39.9-12.3-53.7-21.2l-4.8-3.1 2-2.2c4.3-4.6 3.7-11.9-1.4-15.2-3.1-2-7.8-1.8-19.6.9z"/></svg>